<svg width="64" height="64" viewBox="0 0 64 64" fill="none" xmlns="http://www.w3.org/2000/svg">
<path d="M9.62728 54.3729L9.62693 54.3726C3.54083 48.2945 0.5 40.8665 0.5 32.0576C0.5 23.2486 3.54092 15.7998 9.62808 9.68079C15.7147 3.5623 23.1427 0.503986 31.9426 0.500004C40.7423 0.496022 48.1909 3.55427 54.3183 9.68172C60.4457 15.8092 63.504 23.2577 63.5 32.0574C63.496 40.8573 60.4377 48.2852 54.3192 54.3719C48.2002 60.4591 40.7514 63.5 31.9424 63.5C23.1376 63.5 15.7096 60.4592 9.62728 54.3729ZM29.2203 58.3279L29.7634 58.3748V57.8297V38.4218V37.2147L28.9098 38.0683L15.2722 51.7059L14.8825 52.0956L15.3082 52.4457C17.2986 54.0824 19.4569 55.4138 21.7823 56.4386C24.1135 57.4718 26.5978 58.1011 29.2203 58.3279ZM34.1215 57.8297V58.3776L34.667 58.3276C37.1909 58.0967 39.6423 57.4883 42.0195 56.5036C44.397 55.5188 46.5834 54.2041 48.5772 52.5604L49.0019 52.2103L48.6127 51.8211L34.975 38.1834L34.1215 37.3299V38.537V57.8297ZM51.7059 48.7278L52.0956 49.1175L52.4457 48.6919C54.085 46.6983 55.3995 44.5124 56.3882 42.1354C57.3771 39.7577 57.9857 37.3059 58.2126 34.7814L58.2615 34.2366H57.7146H38.4218H37.2147L38.0683 35.0902L51.7059 48.7278ZM38.0683 29.025L37.2147 29.8785H38.4218H57.7146H58.2624L58.2125 29.333C57.9815 26.8091 57.3731 24.3577 56.3884 21.9805C55.4036 19.6029 54.0889 17.4166 52.4453 15.4228L52.0952 14.9981L51.7059 15.3873L38.0683 29.025ZM34.1215 25.6932L34.1211 26.9008L34.975 26.0469L48.6127 12.4093L49.0024 12.0195L48.5767 11.6695C46.5864 10.0328 44.4282 8.70152 42.1029 7.67673C39.7718 6.64352 37.2934 6.01413 34.6706 5.78732L34.1277 5.74037L34.1275 6.2853L34.1215 25.6932ZM28.9098 25.9317L29.7634 26.7853V25.5782V6.28546V5.73762L29.2178 5.78754C26.6939 6.01848 24.2426 6.62686 21.8653 7.61155C19.4878 8.59634 17.3015 9.91107 15.3077 11.5547L14.883 11.9049L15.2722 12.2941L28.9098 25.9317ZM5.67229 29.3338L5.62333 29.8785H6.17028H25.463H26.6701L25.8166 29.025L12.1789 15.3873L11.7892 14.9976L11.4392 15.4233C9.79984 17.4169 8.48538 19.6028 7.49668 21.9798C6.5077 24.3575 5.89916 26.8093 5.67229 29.3338ZM11.4317 48.6825L11.7797 49.127L12.1789 48.7278L25.8166 35.0902L26.6701 34.2366H25.463H6.05512H5.49011L5.55883 34.7975C5.8678 37.3186 6.53519 39.767 7.55986 42.1415C8.58263 44.5115 9.87321 46.6923 11.4317 48.6825ZM31.9424 36.6368C33.2361 36.6368 34.3399 36.2056 35.2165 35.3335C36.0947 34.46 36.5261 33.3544 36.5216 32.0559C36.5171 30.7601 36.0868 29.6565 35.2184 28.7835C34.3485 27.909 33.2431 27.4784 31.9424 27.4784C30.6418 27.4784 29.5364 27.909 28.6664 28.7835C27.798 29.6565 27.3677 30.7601 27.3632 32.0559C27.3588 33.3544 27.7902 34.46 28.6683 35.3335C29.5449 36.2056 30.6488 36.6368 31.9424 36.6368Z" fill="black" stroke="black"/>
</svg>
