<svg width="64" height="64" viewBox="0 0 64 64" fill="none" xmlns="http://www.w3.org/2000/svg">
<path d="M31.9424 64C23.0082 64 15.452 60.9088 9.27361 54.7264C3.09121 48.5521 0 40.9958 0 32.0576C0 23.1194 3.09121 15.5429 9.27361 9.32816C15.456 3.11343 23.0123 0.00404472 31.9424 3.93327e-06C40.8726 -0.00403685 48.449 3.10535 54.6719 9.32816C60.8947 15.551 64.004 23.1274 64 32.0576C63.996 40.9877 60.8866 48.544 54.6719 54.7264C48.4571 60.9088 40.8806 64 31.9424 64ZM29.2634 57.8297V38.4218L15.6257 52.0595C17.5815 53.6677 19.7009 54.9749 21.9839 55.9811C24.2629 56.9912 26.6934 57.6075 29.2634 57.8297ZM34.6215 57.8297C37.0944 57.6034 39.4967 57.0074 41.8282 56.0417C44.1597 55.0759 46.3034 53.7869 48.2591 52.1746L34.6215 38.537V57.8297ZM52.0595 48.3743C53.6677 46.4185 54.9567 44.2749 55.9265 41.9434C56.8963 39.6118 57.4923 37.2096 57.7146 34.7366H38.4218L52.0595 48.3743ZM38.4218 29.3785H57.7146C57.4883 26.9056 56.8922 24.5033 55.9265 22.1718C54.9608 19.8403 53.6718 17.6966 52.0595 15.7409L38.4218 29.3785ZM34.6215 25.6933L48.2591 12.0557C46.3034 10.4475 44.184 9.14027 41.9009 8.13412C39.6219 7.12392 37.1975 6.5077 34.6275 6.28546L34.6215 25.6933ZM31.9424 36.1368C33.1142 36.1368 34.0881 35.7509 34.8639 34.9791C35.6397 34.2073 36.0256 33.2335 36.0216 32.0576C36.0176 30.8817 35.6317 29.9079 34.8639 29.1361C34.0962 28.3643 33.1223 27.9784 31.9424 27.9784C30.7625 27.9784 29.7887 28.3643 29.0209 29.1361C28.2532 29.9079 27.8673 30.8817 27.8632 32.0576C27.8592 33.2335 28.2451 34.2073 29.0209 34.9791C29.7968 35.7509 30.7706 36.1368 31.9424 36.1368ZM29.2634 25.5782V6.28546C26.7904 6.51174 24.3882 7.10775 22.0566 8.07349C19.7251 9.03924 17.5815 10.3283 15.6257 11.9405L29.2634 25.5782ZM6.17028 29.3785H25.463L11.8254 15.7409C10.2171 17.6966 8.92813 19.8403 7.95834 22.1718C6.98855 24.5033 6.39252 26.9056 6.17028 29.3785ZM11.8254 48.3743L25.463 34.7366H6.05512C6.35818 37.2096 7.01278 39.6118 8.01894 41.9434C9.0251 44.2749 10.2939 46.4185 11.8254 48.3743Z" fill="gray" stroke="gray"/>
</svg>
